<svg width="284" height="54" viewBox="0 0 284 54" fill="none" xmlns="http://www.w3.org/2000/svg">
<path d="M33.4754 6.03321C33.3441 5.79992 32.6287 4.57514 31.0812 4.13771C29.563 3.70029 28.3367 4.32726 28.0885 4.45849C28.0447 4.48765 28.0009 4.50223 27.9571 4.53139C28.2783 4.05023 28.7454 3.467 29.3878 2.86919C29.3878 2.86919 30.3513 1.96518 31.5192 1.32363C36.3806 -1.35923 42.4245 0.171748 45.4465 4.69178C45.4319 4.69178 45.4319 4.70636 45.4173 4.70636C51.2422 15.1024 57.0671 25.4839 62.8921 35.88C58.6 35.8654 54.308 35.8509 50.0159 35.8363C48.3078 32.7597 46.5998 29.6832 44.8917 26.6067C43.68 24.4195 42.4683 22.247 41.2566 20.0599L33.4754 6.03321Z" fill="url(#paint0_linear_1_65)"/>
<path d="M27.9857 4.50218L28.0441 4.47302C29.9711 3.40862 32.3945 4.1085 33.4749 6.03316C34.4092 7.72453 35.3435 9.40132 36.2778 11.0927C33.3727 15.8752 30.4529 20.6431 27.5477 25.4256C25.5477 21.8095 23.5331 18.1935 21.533 14.5921C23.679 11.2239 25.8397 7.87034 27.9857 4.50218Z" fill="#3D6ADE"/>
<path d="M29.4166 47.0928C29.548 47.3261 30.2633 48.5509 31.8108 48.9883C33.3291 49.4257 34.5554 48.7987 34.8036 48.6675C34.8474 48.6383 34.8912 48.6238 34.935 48.5946C34.6138 49.0758 34.1466 49.659 33.5043 50.2568C33.5043 50.2568 32.5408 51.1608 31.3729 51.8024C26.5114 54.4852 20.4675 52.9542 17.4456 48.4342C17.4602 48.4342 17.4602 48.4196 17.4748 48.4196C11.6499 38.0235 5.82493 27.6421 0 17.246C4.29205 17.2606 8.5841 17.2751 12.8762 17.2897C14.5842 20.3663 16.2923 23.4428 18.0003 26.5193C19.212 28.7064 20.4237 30.879 21.6354 33.0661L29.4166 47.0928Z" fill="url(#paint1_linear_1_65)"/>
<path d="M34.9057 48.6238L34.8473 48.653C32.9203 49.7174 30.4969 49.0175 29.4166 47.0928C28.4822 45.4015 27.5479 43.7247 26.6136 42.0333C29.5188 37.2508 32.4385 32.4683 35.3437 27.7004C37.3437 31.3165 39.3584 34.9325 41.3584 38.5339C39.2124 41.9021 37.0517 45.2557 34.9057 48.6238Z" fill="#3D6ADE"/>
<path d="M77.7902 25.0076L82.7309 15.8832V25.0076H86.0579V11.2612H82.2926L77.3519 20.3856V11.2612H74.0249V25.0076H77.7902ZM100.544 25.0076V11.2612H97.2172V16.6004H92.1768V11.2612H88.8498V25.0076H92.1768V19.4094H97.2172V25.0076H100.544ZM113.824 14.0703V11.2612H102.328V14.0703H106.412V25.0076H109.74V14.0703H113.824ZM125.542 25.0076V22.2782H118.947V19.3098H123.848V16.6402H118.947V13.9906H125.462V11.2612H115.62V25.0076H125.542ZM138.956 15.943C138.956 13.0144 137.442 11.2612 134.194 11.2612H127.799V25.0076H131.126V20.5051H134.194C137.442 20.5051 138.956 18.8516 138.956 15.943ZM135.529 16.2617C135.529 17.1781 134.951 17.736 133.816 17.736H131.126V14.0304H133.816C134.971 14.0304 135.529 14.6082 135.529 15.5844V16.2617ZM152.587 25.0076V11.2612H149.26V16.6004H144.22V11.2612H140.893V25.0076H144.22V19.4094H149.26V25.0076H152.587ZM165.289 25.0076V22.2782H158.694V19.3098H163.595V16.6402H158.694V13.9906H165.209V11.2612H155.367V25.0076H165.289ZM178.045 14.0703V11.2612H166.55V14.0703H170.634V25.0076H173.961V14.0703H178.045ZM195.979 15.943C195.979 13.0144 194.465 11.2612 191.218 11.2612H184.823V25.0076H188.15V20.5051H191.218C194.465 20.5051 195.979 18.8516 195.979 15.943ZM192.553 16.2617C192.553 17.1781 191.975 17.736 190.839 17.736H188.15V14.0304H190.839C191.995 14.0304 192.553 14.6082 192.553 15.5844V16.2617ZM207.837 25.0076V22.2782H201.243V19.3098H206.144V16.6402H201.243V13.9906H207.758V11.2612H197.916V25.0076H207.837ZM224.22 11.2612V22.1985H220.495V11.2612H217.148V22.1985H213.422V11.2612H210.095V25.0076H227.547V11.2612H224.22ZM240.25 25.0076V22.2782H233.656V19.3098H238.557V16.6402H233.656V13.9906H240.17V11.2612H230.329V25.0076H240.25ZM254.202 25.0076V11.2612H250.875V16.6004H245.835V11.2612H242.508V25.0076H245.835V19.4094H250.875V25.0076H254.202ZM260.748 25.0076L265.688 15.8832V25.0076H269.015V11.2612H265.25L260.309 20.3856V11.2612H256.982V25.0076H260.748ZM271.508 15.7637C271.508 17.6563 272.305 19.0309 273.819 19.7282L271.21 25.0076H274.716L277.067 20.2462H279.238V25.0076H282.585V11.2612H276.509C273.321 11.2612 271.508 12.9945 271.508 15.7637ZM274.955 15.4449C274.955 14.4488 275.612 13.9507 276.728 13.9507H279.238V17.5766H276.728C275.592 17.5766 274.955 17.0188 274.955 16.0027V15.4449Z" fill="black"/>
<path d="M85.0647 38.3922L82.7837 45.2654H83.6303L84.2778 43.303H87.2562L87.9535 45.2654H88.85L86.4195 38.3922H85.0647ZM85.7222 38.96L86.9972 42.5759H84.5169L85.7222 38.96ZM89.8632 38.3922V45.2654H90.7597V39.1094H93.7679V38.3922H89.8632ZM99.137 45.2654V44.5482H95.7402V42.1376H98.3899V41.4204H95.7402V39.1094H99.0573V38.3922H94.8437V45.2654H99.137ZM105.525 45.2654V38.3922H104.629V41.4204H101.411V38.3922H100.515V45.2654H101.411V42.1376H104.629V45.2654H105.525ZM111.898 39.1094V38.3922H106.598V39.1094H108.8V45.2654H109.696V39.1094H111.898ZM115.312 45.365C116.866 45.365 117.742 44.7474 117.971 43.313H117.035C116.856 44.3091 116.288 44.6478 115.312 44.6478C113.947 44.6478 113.379 43.6816 113.379 42.1376V41.5001C113.379 39.9262 113.987 39.0098 115.312 39.0098C116.348 39.0098 116.876 39.4481 117.025 40.3944H117.961C117.742 38.9401 116.975 38.2926 115.312 38.2926C113.369 38.2926 112.443 39.5676 112.443 41.8288C112.443 44.09 113.369 45.365 115.312 45.365ZM123.96 39.1094V38.3922H118.661V39.1094H120.862V45.2654H121.758V39.1094H123.96ZM129.889 43.3528C129.889 42.3767 129.381 41.8587 128.604 41.6794C129.282 41.4503 129.64 40.8825 129.64 40.1055C129.64 38.95 128.933 38.3922 127.608 38.3922H125.038V45.2654H127.768C129.182 45.2654 129.889 44.6179 129.889 43.3528ZM128.963 43.0939V43.5222C128.963 44.2195 128.515 44.5482 127.688 44.5482H125.935V42.0977H127.688C128.614 42.0977 128.963 42.4862 128.963 43.0939ZM128.704 40.0258V40.4044C128.704 41.0718 128.326 41.4204 127.618 41.4204H125.935V39.1094H127.618C128.316 39.1094 128.704 39.4182 128.704 40.0258ZM136.902 41.8288C136.902 39.478 135.946 38.2926 133.904 38.2926C131.862 38.2926 130.916 39.478 130.916 41.8288C130.916 44.1697 131.862 45.365 133.904 45.365C135.946 45.365 136.902 44.1697 136.902 41.8288ZM135.966 42.1376C135.966 43.7413 135.338 44.6478 133.904 44.6478C132.47 44.6478 131.852 43.7413 131.852 42.1376V41.5001C131.852 39.9063 132.47 39.0098 133.904 39.0098C135.338 39.0098 135.966 39.9063 135.966 41.5001V42.1376ZM145.349 40.5239C145.349 39.209 144.652 38.3922 143.118 38.3922H140.807V45.2654H141.703V42.6058H143.118C144.652 42.6058 145.349 41.8188 145.349 40.5239ZM144.413 40.7331C144.413 41.4503 143.984 41.8487 143.058 41.8487H141.703V39.1493H143.058C143.984 39.1493 144.413 39.5477 144.413 40.3048V40.7331ZM150.917 45.2654V44.5482H147.52V42.1376H150.17V41.4204H147.52V39.1094H150.838V38.3922H146.624V45.2654H150.917ZM156.837 40.4841C156.837 39.1891 156.2 38.3922 154.606 38.3922H152.295V45.2654H153.192V42.5261H154.596L156.08 45.2654H157.116L155.552 42.4065C156.459 42.1476 156.837 41.4602 156.837 40.4841ZM155.901 40.6833C155.901 41.3806 155.473 41.769 154.546 41.769H153.192V39.1493H154.546C155.473 39.1493 155.901 39.5377 155.901 40.2549V40.6833ZM159.281 45.2654V42.2272H161.901V41.5001H159.281V39.1094H162.499V38.3922H158.385V45.2654H159.281ZM169.393 41.8288C169.393 39.478 168.436 38.2926 166.394 38.2926C164.352 38.2926 163.406 39.478 163.406 41.8288C163.406 44.1697 164.352 45.365 166.394 45.365C168.436 45.365 169.393 44.1697 169.393 41.8288ZM168.456 42.1376C168.456 43.7413 167.829 44.6478 166.394 44.6478C164.96 44.6478 164.342 43.7413 164.342 42.1376V41.5001C164.342 39.9063 164.96 39.0098 166.394 39.0098C167.829 39.0098 168.456 39.9063 168.456 41.5001V42.1376ZM175.349 40.4841C175.349 39.1891 174.712 38.3922 173.118 38.3922H170.807V45.2654H171.703V42.5261H173.108L174.592 45.2654H175.628L174.064 42.4065C174.971 42.1476 175.349 41.4602 175.349 40.4841ZM174.413 40.6833C174.413 41.3806 173.984 41.769 173.058 41.769H171.703V39.1493H173.058C173.984 39.1493 174.413 39.5377 174.413 40.2549V40.6833ZM178.371 38.3922H176.896V45.2654H177.743V39.1293L179.656 44.1697H180.751L182.674 39.1293V45.2654H183.57V38.3922H182.156L180.253 43.3728L178.371 38.3922ZM186.864 38.3922L184.583 45.2654H185.43L186.078 43.303H189.056L189.753 45.2654H190.65L188.219 38.3922H186.864ZM187.522 38.96L188.797 42.5759H186.317L187.522 38.96ZM192.838 38.3922H191.663V45.2654H192.52V39.6075L195.548 45.2654H196.733V38.3922H195.876V44.08L192.838 38.3922ZM201.012 45.365C202.566 45.365 203.443 44.7474 203.672 43.313H202.735C202.556 44.3091 201.988 44.6478 201.012 44.6478C199.647 44.6478 199.08 43.6816 199.08 42.1376V41.5001C199.08 39.9262 199.687 39.0098 201.012 39.0098C202.048 39.0098 202.576 39.4481 202.725 40.3944H203.662C203.443 38.9401 202.676 38.2926 201.012 38.2926C199.07 38.2926 198.143 39.5676 198.143 41.8288C198.143 44.09 199.07 45.365 201.012 45.365ZM209.332 45.2654V44.5482H205.935V42.1376H208.585V41.4204H205.935V39.1094H209.252V38.3922H205.038V45.2654H209.332ZM214.674 38.3922H213.2V45.2654H214.047V39.1293L215.959 44.1697H217.055L218.977 39.1293V45.2654H219.874V38.3922H218.459L216.557 43.3728L214.674 38.3922ZM223.168 38.3922L220.887 45.2654H221.734L222.381 43.303H225.359L226.057 45.2654H226.953L224.523 38.3922H223.168ZM223.825 38.96L225.1 42.5759H222.62L223.825 38.96ZM232.509 40.5239C232.509 39.209 231.811 38.3922 230.277 38.3922H227.966V45.2654H228.863V42.6058H230.277C231.811 42.6058 232.509 41.8188 232.509 40.5239ZM231.572 40.7331C231.572 41.4503 231.144 41.8487 230.218 41.8487H228.863V39.1493H230.218C231.144 39.1493 231.572 39.5477 231.572 40.3048V40.7331ZM234.68 38.3922H233.784V45.2654H234.68V42.1974H235.367L237.748 45.2654H238.844L236.124 41.769L238.625 38.3922H237.609L235.367 41.4403H234.68V38.3922ZM244.225 45.2654V44.5482H240.828V42.1376H243.478V41.4204H240.828V39.1094H244.145V38.3922H239.931V45.2654H244.225ZM250.225 39.1094V38.3922H244.925V39.1094H247.127V45.2654H248.023V39.1094H250.225ZM252.339 45.2654L255.517 39.5377V45.2654H256.413V38.3922H255.367L252.2 44.1199V38.3922H251.303V45.2654H252.339ZM263.181 45.2654V38.3922H262.285V41.4204H259.067V38.3922H258.171V45.2654H259.067V42.1376H262.285V45.2654H263.181ZM264.932 38.3922V45.2654H265.828V39.1094H268.836V38.3922H264.932ZM270.59 38.3922L268.309 45.2654H269.156L269.803 43.303H272.782L273.479 45.2654H274.376L271.945 38.3922H270.59ZM271.248 38.96L272.523 42.5759H270.042L271.248 38.96Z" fill="black"/>
<defs>
<linearGradient id="paint0_linear_1_65" x1="45.4246" y1="0" x2="45.4246" y2="35.88" gradientUnits="userSpaceOnUse">
<stop stop-color="#3E4BDD"/>
<stop offset="1" stop-color="#3D6ADE"/>
</linearGradient>
<linearGradient id="paint1_linear_1_65" x1="17.4675" y1="17.246" x2="17.4675" y2="53.126" gradientUnits="userSpaceOnUse">
<stop stop-color="#3D6ADE"/>
<stop offset="1" stop-color="#3E4BDD"/>
</linearGradient>
</defs>
</svg>
