<svg width="160" height="59" viewBox="0 0 160 59" fill="none" xmlns="http://www.w3.org/2000/svg">
<path d="M26.1346 3.96301C14.3231 3.96301 3.9058 11.3228 0.0506133 22.2412C-0.113437 22.7265 0.132639 23.3734 0.62479 23.5352C1.11694 23.6969 1.69111 23.4543 1.85518 22.9691C5.46429 12.7786 15.1433 5.90406 26.1346 5.90406C35.2395 5.90406 43.442 10.5949 48.0355 18.0356C48.1995 18.2782 48.6096 19.0062 49.5119 18.6826C50.4142 18.2782 49.7579 17.0651 49.5939 16.9033C44.6724 8.97737 35.8137 3.96301 26.1346 3.96301Z" fill="black"/>
<path d="M67.1473 43.0266H66.245V31.8655C66.491 31.8655 66.9012 31.8655 67.6395 31.8655C68.3777 31.8655 68.7878 31.8655 69.0338 31.8655C72.1508 31.8655 73.0531 33.5639 73.0531 35.1815C73.0531 36.152 72.725 36.9608 72.0688 37.6077C71.4126 38.2548 70.4283 38.5783 69.0338 38.5783C68.3777 38.5783 67.7214 38.5783 67.1473 38.4975V43.0266ZM67.1473 32.7552V37.7695C67.8035 37.8504 68.4596 37.8504 68.9518 37.8504C70.9204 37.8504 72.0688 36.7991 72.0688 35.2623C72.0688 33.7256 71.0845 32.7552 69.0338 32.7552C68.4596 32.6743 67.8035 32.6743 67.1473 32.7552Z" fill="black"/>
<path d="M74.9398 39.2252C74.9398 38.093 75.3499 37.1225 76.0881 36.3945C76.8263 35.6667 77.8107 35.2623 78.959 35.2623C80.1073 35.2623 81.0917 35.6667 81.8299 36.3945C82.5681 37.1225 82.9782 38.093 82.9782 39.2252C82.9782 40.3575 82.5681 41.3281 81.8299 42.0559C81.0917 42.7838 80.1073 43.1883 78.959 43.1883C77.8107 43.1883 76.8263 42.7838 76.0881 42.0559C75.3499 41.3281 74.9398 40.3575 74.9398 39.2252ZM81.1737 41.4899C81.7478 40.9236 82.076 40.1958 82.076 39.2252C82.076 38.3356 81.7478 37.6078 81.1737 36.9607C80.5995 36.3945 79.8613 36.0711 78.959 36.0711C78.0567 36.0711 77.3185 36.3945 76.7444 36.9607C76.1701 37.5268 75.8421 38.2547 75.8421 39.2252C75.8421 40.115 76.1701 40.8428 76.7444 41.4899C77.3185 42.0559 78.0567 42.3795 78.959 42.3795C79.8613 42.3795 80.5995 42.0559 81.1737 41.4899Z" fill="black"/>
<path d="M91.8369 41.9749C91.1807 42.7837 90.1144 43.1881 88.966 43.1881C87.7356 43.1881 86.8334 42.8646 86.0132 42.1366C85.275 41.4088 84.8647 40.4382 84.8647 39.306C84.8647 38.1737 85.1929 37.2841 85.9311 36.5561C86.6693 35.8283 87.5716 35.424 88.6379 35.424C89.9504 35.424 90.9347 35.7474 91.5909 36.3944L91.1807 37.1224C90.6065 36.5561 89.7863 36.3136 88.802 36.3136C87.9818 36.3136 87.2436 36.6371 86.6693 37.2032C86.0952 37.7693 85.767 38.4972 85.767 39.3869C85.767 40.3574 86.0952 41.0853 86.6693 41.6514C87.2436 42.2176 88.0638 42.4602 88.966 42.4602C89.9504 42.4602 90.7706 42.1366 91.3448 41.4088L91.8369 41.9749Z" fill="black"/>
<path d="M100.121 41.9749C99.4652 42.7837 98.399 43.1881 97.2506 43.1881C96.0202 43.1881 95.1179 42.8646 94.2977 42.1366C93.5595 41.4088 93.1493 40.4382 93.1493 39.306C93.1493 38.1737 93.4774 37.2841 94.2156 36.5561C94.9538 35.8283 95.8561 35.424 96.9225 35.424C98.2349 35.424 99.2192 35.7474 99.8754 36.3944L99.4652 37.1224C98.8911 36.5561 98.0709 36.3136 97.0865 36.3136C96.2663 36.3136 95.5281 36.6371 94.9538 37.2032C94.3797 37.7693 94.0516 38.4972 94.0516 39.3869C94.0516 40.3574 94.3797 41.0853 94.9538 41.6514C95.5281 42.2176 96.3483 42.4602 97.2506 42.4602C98.235 42.4602 99.0551 42.1366 99.6293 41.4088L100.121 41.9749Z" fill="black"/>
<path d="M103.238 43.0264H102.336V35.5049H103.238V41.8132L108.324 35.5049H109.226V43.0264H108.324V36.718L103.238 43.0264Z" fill="black"/>
<path d="M113.082 43.0265H112.179V35.505H113.082V41.8134L118.167 35.505H119.07V43.0265H118.167V36.7181L113.082 43.0265ZM114.148 31.542C114.148 32.3508 114.804 32.9978 115.706 32.9978C116.609 32.9978 117.183 32.3508 117.183 31.542H118.003C118.003 32.7551 117.018 33.7257 115.706 33.7257C114.23 33.7257 113.328 32.8361 113.328 31.542H114.148Z" fill="black"/>
<path d="M128.503 41.9749C127.846 42.7837 126.78 43.1881 125.631 43.1881C124.4 43.1881 123.499 42.8646 122.678 42.1366C121.94 41.4088 121.53 40.4382 121.53 39.306C121.53 38.1737 121.858 37.2841 122.596 36.5561C123.334 35.8283 124.237 35.424 125.303 35.424C126.616 35.424 127.6 35.7474 128.256 36.3944L127.846 37.1224C127.272 36.5561 126.452 36.3136 125.468 36.3136C124.647 36.3136 123.909 36.6371 123.334 37.2032C122.761 37.7693 122.433 38.4972 122.433 39.3869C122.433 40.3574 122.761 41.0853 123.334 41.6514C123.909 42.2176 124.729 42.4602 125.631 42.4602C126.616 42.4602 127.436 42.1366 128.01 41.4088L128.503 41.9749Z" fill="black"/>
<path d="M130.717 43.0264V35.5048H131.619V43.0264H130.717ZM136.951 35.424L133.178 39.0633L137.279 43.0264H136.048L132.112 39.1443L135.803 35.5048H136.951V35.424Z" fill="black"/>
<path d="M140.15 43.0264H139.248V35.5049H140.15V41.8132L145.236 35.5049H146.138V43.0264H145.236V36.718L140.15 43.0264Z" fill="black"/>
<path d="M149.993 43.0265H149.09V35.505H149.993V41.8134L155.078 35.505H155.981V43.0265H155.078V36.7181L149.993 43.0265ZM151.142 31.542C151.142 32.3508 151.798 32.9978 152.7 32.9978C153.602 32.9978 154.177 32.3508 154.177 31.542H154.996C154.996 32.7551 154.012 33.7257 152.7 33.7257C151.224 33.7257 150.321 32.8361 150.321 31.542H151.142Z" fill="black"/>
<path d="M64.7686 58.5549L69.6081 47.5557H70.3463L75.1859 58.5549H74.2836L72.6431 54.8346H67.2294L65.5889 58.5549H64.7686ZM69.9362 48.7688L67.6395 54.0258H72.2329L69.9362 48.7688Z" fill="black"/>
<path d="M76.9904 51.5994C77.1545 51.5994 77.4826 51.5994 77.9747 51.5994C78.4669 51.5994 78.877 51.5994 79.2872 51.5994C81.2558 51.5994 82.24 52.1656 82.24 53.3787C82.24 54.1874 81.6659 54.8344 80.7636 54.9962C81.9119 55.1579 82.4861 55.7241 82.4861 56.6946C82.4861 57.9886 81.4198 58.6357 79.2872 58.6357C78.959 58.6357 78.5489 58.6357 78.0568 58.6357C77.5646 58.6357 77.1545 58.6357 76.9904 58.6357V51.5994ZM77.8107 52.3272V54.6727H79.6973C80.7636 54.6727 81.3377 54.1874 81.3377 53.4595C81.3377 52.6507 80.6816 52.3272 79.3691 52.3272C78.795 52.2464 78.3028 52.3272 77.8107 52.3272ZM77.8107 55.3197V57.8269C78.4669 57.8269 78.959 57.8269 79.3691 57.8269C80.8456 57.8269 81.5838 57.4226 81.5838 56.5328C81.5838 55.7241 80.9277 55.3197 79.4512 55.3197H77.8107Z" fill="black"/>
<path d="M83.7986 52.4082V51.5994H90.2786V52.4082H87.4897V58.6357H86.6695V52.4082H83.7986Z" fill="black"/>
<path d="M91.2629 55.0773C91.2629 54.0259 91.591 53.1361 92.3292 52.4892C92.9855 51.8422 93.8877 51.4377 95.036 51.4377C96.1024 51.4377 97.0047 51.7613 97.7429 52.4892C98.3991 53.1361 98.8092 54.0259 98.8092 55.0773C98.8092 56.1286 98.4811 57.0182 97.7429 57.6653C97.0866 58.3123 96.1845 58.7168 95.036 58.7168C93.9697 58.7168 93.0674 58.3932 92.3292 57.6653C91.591 57.0182 91.2629 56.1286 91.2629 55.0773ZM97.0047 57.18C97.5788 56.6139 97.825 55.9669 97.825 55.0773C97.825 54.2685 97.5788 53.5406 97.0047 52.9744C96.4305 52.4083 95.7743 52.1657 94.9541 52.1657C94.1338 52.1657 93.4776 52.4083 92.9034 52.9744C92.3292 53.5406 92.0832 54.1876 92.0832 55.0773C92.0832 55.9669 92.3292 56.6139 92.9034 57.18C93.4776 57.7462 94.1338 57.9888 94.9541 57.9888C95.7743 57.9888 96.5125 57.6653 97.0047 57.18Z" fill="black"/>
<path d="M106.93 57.5844C106.356 58.3123 105.289 58.7168 104.223 58.7168C103.157 58.7168 102.254 58.3932 101.516 57.7462C100.86 57.0992 100.45 56.2096 100.45 55.0773C100.45 54.0259 100.778 53.2171 101.434 52.4892C102.09 51.7613 102.911 51.4377 103.977 51.4377C105.207 51.4377 106.11 51.7613 106.766 52.3275L106.356 52.9744C105.781 52.4892 105.043 52.2465 104.141 52.2465C103.403 52.2465 102.746 52.4892 102.172 53.0553C101.598 53.6214 101.352 54.2685 101.352 55.0773C101.352 55.9669 101.598 56.6139 102.172 57.18C102.746 57.6653 103.403 57.9888 104.305 57.9888C105.207 57.9888 105.945 57.6653 106.52 57.0182L106.93 57.5844Z" fill="black"/>
<path d="M108.078 55.0773C108.078 54.0259 108.406 53.1361 109.144 52.4892C109.801 51.8422 110.703 51.4377 111.851 51.4377C112.999 51.4377 113.82 51.7613 114.558 52.4892C115.214 53.1361 115.624 54.0259 115.624 55.0773C115.624 56.1286 115.296 57.0182 114.558 57.6653C113.902 58.3123 112.999 58.7168 111.851 58.7168C110.703 58.7168 109.882 58.3932 109.144 57.6653C108.488 57.0182 108.078 56.1286 108.078 55.0773ZM113.902 57.18C114.476 56.6139 114.722 55.9669 114.722 55.0773C114.722 54.2685 114.476 53.5406 113.902 52.9744C113.328 52.4083 112.671 52.1657 111.851 52.1657C111.031 52.1657 110.375 52.4083 109.801 52.9744C109.226 53.5406 108.98 54.1876 108.98 55.0773C108.98 55.9669 109.226 56.6139 109.801 57.18C110.375 57.7462 111.031 57.9888 111.851 57.9888C112.671 57.9888 113.41 57.6653 113.902 57.18Z" fill="black"/>
<path d="M117.839 58.5548V51.5184H118.742V54.5109H120.546C120.628 53.5404 121.037 52.8125 121.694 52.2463C122.35 51.6802 123.171 51.3567 124.155 51.3567C125.221 51.3567 126.041 51.6802 126.78 52.4081C127.436 53.0551 127.765 53.9448 127.765 54.9962C127.765 56.0476 127.436 56.9372 126.78 57.5842C126.124 58.2312 125.221 58.6356 124.155 58.6356C123.171 58.6356 122.35 58.3121 121.694 57.746C121.037 57.0989 120.709 56.2901 120.628 55.3197H118.823V58.4738H117.839V58.5548ZM121.448 55.077C121.448 55.8858 121.694 56.6137 122.186 57.0989C122.678 57.5842 123.334 57.9077 124.155 57.9077C124.975 57.9077 125.631 57.6652 126.041 57.0989C126.534 56.5328 126.78 55.8858 126.78 55.077C126.78 54.2682 126.534 53.5404 126.041 53.0551C125.549 52.489 124.893 52.2463 124.155 52.2463C123.417 52.2463 122.678 52.489 122.186 53.0551C121.694 53.5404 121.448 54.2682 121.448 55.077Z" fill="black"/>
<path d="M130.553 58.4742C129.979 58.3124 129.569 58.0697 129.404 57.8271L129.815 57.1801C130.388 57.6654 131.291 57.9889 132.029 57.9889C133.342 57.9889 134.244 57.4227 134.244 56.5331C134.244 55.8052 133.588 55.4008 132.604 55.4008H131.373V54.7538H132.522C133.342 54.7538 133.998 54.1876 133.998 53.4598C133.998 52.651 133.342 52.2466 132.194 52.2466C131.373 52.2466 130.635 52.4892 129.979 53.0554L129.65 52.4084C130.225 51.7614 131.128 51.5187 132.357 51.5187C133.998 51.5187 134.9 52.2466 134.9 53.3788C134.9 54.1876 134.491 54.7538 133.588 55.0774C134.572 55.1582 135.147 55.886 135.147 56.6948C135.147 57.9889 133.998 58.7977 132.194 58.7977C131.619 58.7168 131.128 58.6359 130.553 58.4742Z" fill="black"/>
<path d="M70.7565 27.1747H65.917V0.0809326C66.4092 0.0809326 67.6396 0.0809326 69.6082 0.0809326C71.6588 0.0809326 73.0532 0.0809326 73.7095 0.0809326C81.7479 0.0809326 84.2907 4.28652 84.2907 8.81563C84.2907 11.2419 83.3884 13.3448 81.6659 15.0432C79.8614 16.7416 77.4006 17.6312 74.2836 17.6312C72.6431 17.6312 71.4947 17.6312 70.7565 17.5504V27.1747ZM70.7565 4.52916V12.8595C71.9869 12.9403 73.1352 13.0212 74.2016 13.0212C77.2365 13.0212 79.2872 11.5654 79.2872 8.65387C79.2872 5.82319 77.5646 4.44828 74.2016 4.44828C73.6274 4.44828 72.4791 4.52916 70.7565 4.52916Z" fill="black"/>
<path d="M84.2906 27.1746L95.8562 0H100.122L111.687 27.0938H106.602L103.731 20.1383H92.0011L89.1302 27.0938H84.2906V27.1746ZM97.9069 6.14663L93.8876 15.7709H101.926L97.9069 6.14663Z" fill="black"/>
<path d="M137.361 4.52916V0.0809326H160V4.52916H151.142V27.1747H146.302V4.52916H137.361Z" fill="black"/>
<path fill-rule="evenodd" clip-rule="evenodd" d="M121.038 4.5291V11.4036H124.319C126.697 11.4036 128.421 10.1905 128.421 7.84505C128.421 5.66138 126.78 4.44823 124.074 4.44823C122.925 4.44823 121.94 4.44823 121.038 4.5291ZM124.155 0H123.909C121.284 0 118.742 0.0808768 116.28 0.161754V27.0938C118.003 27.1746 120.628 27.2555 123.909 27.2555C130.06 27.2555 134.08 24.5056 134.08 19.1678C134.08 15.6901 132.112 13.5874 129.241 12.8594V12.7786C131.866 11.5654 133.178 9.54347 133.178 6.6319C133.178 2.66893 130.388 0 124.155 0ZM121.038 15.5283V22.6455C122.105 22.7264 123.171 22.8072 124.237 22.8072C127.6 22.8072 129.241 21.5133 129.241 18.9252C129.241 16.6607 127.518 15.4475 124.483 15.4475H121.038V15.5283Z" fill="black"/>
<path d="M26.8729 38.7401C26.4628 38.2549 29.1697 35.2624 29.7438 34.858C30.3181 34.4537 46.7231 24.4249 47.8715 23.7779C49.1019 23.1308 50.7423 23.6971 48.6097 25.2337C46.477 26.7704 31.9586 37.1225 31.3843 37.527C30.7282 38.0123 27.3651 39.2254 26.8729 38.7401Z" fill="black"/>
<path d="M26.0527 20.2194C25.3145 19.9767 22.7717 19.8149 21.0491 20.7047C20.639 20.9473 20.5569 21.756 20.8031 22.1604C21.1311 22.5648 21.6233 22.5648 22.3615 22.5648C23.674 22.4839 24.5762 22.4839 25.4785 22.4839C26.2987 22.4031 26.7088 20.462 26.0527 20.2194Z" fill="#FAC202"/>
<path d="M18.3424 21.9986C17.8502 22.2412 17.112 22.7265 16.7838 22.9691C16.4558 23.2118 16.0456 23.6971 16.2918 24.1823C16.4558 24.5058 16.9479 24.5867 17.5222 24.2631C18.0142 24.0206 18.5884 23.7779 18.8345 23.6161C19.1627 23.4544 19.4087 23.1308 19.2446 22.7265C19.2446 22.2412 18.8345 21.756 18.3424 21.9986Z" fill="#FAC202"/>
<path d="M24.4942 24.991C24.002 24.991 23.0177 25.2336 22.7716 25.3954C22.5255 25.5571 21.8693 25.7998 21.9514 26.3659C22.0334 26.7704 22.4435 26.9321 23.0997 26.8512C23.6739 26.7704 24.3301 26.7704 24.6582 26.6894C24.9863 26.6894 25.3144 26.4469 25.3144 25.9616C25.2324 25.4763 25.0683 24.9102 24.4942 24.991Z" fill="#FAC202"/>
<path d="M32.1225 10.3523C30.9742 9.94793 29.7438 9.62441 28.4314 9.46266C27.4471 9.3009 26.3807 9.3009 25.3965 9.3009C22.6075 9.38178 19.9828 10.0288 17.6041 11.2419C17.1119 11.4846 16.8659 12.1316 17.0298 12.6977C17.1939 13.2639 17.522 13.6683 17.8501 13.6683C17.9321 13.6683 18.0142 13.6683 18.0962 13.5874C20.1469 12.6977 22.3615 12.2124 24.5762 12.1316C25.8886 12.1316 27.283 12.2124 28.6775 12.5359C29.4978 12.6977 30.236 12.9404 31.0562 13.2639C31.9584 14.3153 32.5327 15.2858 32.7787 16.3372C32.2866 16.1754 31.7944 16.0137 31.3843 15.8519C31.3023 15.8519 31.1382 15.771 30.9742 15.771C30.5641 15.771 30.236 16.0945 29.9898 16.6607C29.9079 16.8225 29.7438 17.3078 29.9079 17.7929C29.9898 18.1164 30.236 18.2782 30.5641 18.44C31.3843 18.7635 32.2046 19.1679 32.9428 19.5723C32.8607 20.2193 32.6967 20.9471 32.5327 21.5134C31.6304 21.1898 30.8101 20.9471 29.7438 20.6236C29.4157 20.5428 28.6775 20.4619 28.2674 21.3516C28.1033 21.7559 27.9392 22.5647 28.8415 22.9691C29.8258 23.3735 30.5641 23.8587 31.3023 24.4249C30.9742 24.991 30.6461 25.5571 30.4 26.0424C29.5797 25.5571 28.5134 25.1528 27.6111 25.0719C27.1189 25.0719 26.6269 25.638 26.7088 26.1233C26.7909 26.6086 27.283 26.6894 27.9392 27.0129C28.7595 27.4982 29.2516 27.9025 29.5797 28.307C29.9079 28.7923 30.3179 28.954 30.6461 29.0348C31.4664 29.2775 32.2046 28.8731 32.9428 28.3878C34.0911 27.579 45.0005 20.2193 45.0005 20.2193C45.0005 20.2193 41.2274 13.0212 32.1225 10.3523Z" fill="#FAC202"/>
<path d="M7.84308 21.3516C7.67903 21.2708 7.51498 21.1898 7.35093 21.1898C7.02283 21.1898 6.77675 21.3516 6.6127 21.6751L6.53067 21.8369C5.95649 22.7265 5.79244 23.05 5.38232 24.1015C5.21827 24.5866 5.38232 25.1528 5.79244 25.3146C5.87447 25.3954 6.03852 25.3954 6.12055 25.3954C6.20257 25.3954 6.20257 25.3954 6.2846 25.3954C6.53067 25.3146 6.77675 25.0719 6.85877 24.7484C7.18688 23.8588 8.08916 22.5647 8.17117 22.5647C8.41725 22.0795 8.17117 21.5943 7.84308 21.3516Z" fill="#FAC202"/>
<path d="M10.3037 19.6531C11.7801 17.712 13.2567 16.5798 14.8972 15.3666L15.3892 15.0431C15.7994 14.8005 15.7994 14.1535 15.5533 13.3447C15.3892 12.9403 15.0612 12.6978 14.7331 12.6978C14.569 12.6978 14.487 12.7786 14.3229 12.7786C12.2723 13.9917 10.5498 15.5284 8.74522 17.9547C8.33509 18.44 8.33509 19.2487 8.74522 19.5722C8.9913 19.8149 9.3194 19.9766 9.56547 19.9766C9.9756 19.9766 10.2217 19.8149 10.3037 19.6531Z" fill="#FAC202"/>
<path d="M11.124 24.3441C10.7959 24.3441 10.5498 24.5867 10.3858 24.9102C10.3037 25.1529 10.2217 25.2337 10.2217 25.3146C10.0577 25.5572 10.0577 25.6381 9.81159 26.1233C9.64753 26.6086 9.81159 27.1748 10.2217 27.3365C10.7959 27.5792 11.206 27.0939 11.3701 26.7704C11.5341 26.4469 11.5341 26.366 11.6161 26.2851C11.6982 26.2043 11.7802 26.0425 11.8623 25.7998C12.1083 25.3146 11.9442 24.7485 11.6161 24.5059C11.3701 24.4249 11.288 24.3441 11.124 24.3441Z" fill="#FAC202"/>
<path d="M17.44 18.2783C17.44 18.1973 17.358 18.1165 17.358 18.0356C17.276 17.7121 16.9479 17.4695 16.6197 17.4695C16.4557 17.4695 16.3737 17.4695 16.2917 17.5503C14.6511 18.44 12.8466 20.381 12.1083 21.5133C11.7803 21.9177 11.8623 22.5647 12.1904 22.8882C12.3545 23.05 12.5186 23.05 12.6826 23.05C12.7646 23.05 12.7646 23.05 12.8466 23.05C13.0927 22.969 13.2568 22.8882 13.4208 22.6456C13.995 21.8368 15.9636 20.0575 17.358 19.2487C17.6861 19.0061 17.522 18.6018 17.44 18.2783Z" fill="#FAC202"/>
<path d="M24.4121 17.2268C25.2324 17.2268 26.0526 17.3077 26.8729 17.4695C26.9548 17.4695 27.0369 17.4695 27.1189 17.4695C27.1189 17.4695 27.1189 17.4695 27.201 17.4695C27.6111 17.3886 27.8571 16.6607 27.8571 16.3372C27.9392 16.0137 27.9392 15.6092 27.6931 15.2858C27.6111 15.1241 27.5291 15.0431 27.3651 15.0431C26.4628 14.8814 25.5605 14.8005 24.7402 14.8005C24.002 14.8005 23.2638 14.8814 22.5255 14.9623C21.6233 15.1241 20.4748 15.5284 19.8187 15.8519C19.4085 16.0945 19.1625 16.5798 19.2446 17.065C19.3265 17.5503 19.6547 17.9547 20.0647 17.9547C20.1468 17.9547 20.1468 17.9547 20.2288 17.9547C20.967 17.7121 22.0334 17.3886 22.7716 17.3077C23.3457 17.3077 23.8379 17.2268 24.4121 17.2268Z" fill="#FAC202"/>
</svg>
