<svg width="716" height="222" viewBox="0 0 716 222" fill="none" xmlns="http://www.w3.org/2000/svg">
<path opacity="0.1" d="M0.384359 0.744507V-0.30909H-0.669237V0.744507H0.384359ZM142.62 22.554L141.891 23.3147L142.62 22.554ZM142.62 133.814L141.891 133.053L142.62 133.814ZM56.9625 155.623V154.57H55.909V155.623H56.9625ZM56.9625 222V223.054H58.0161V222H56.9625ZM0.384359 222H-0.669237V223.054H0.384359V222ZM56.9625 101.89H55.909V102.943H56.9625V101.89ZM102.162 95.2522L101.417 94.5072L101.408 94.5163L101.399 94.5256L102.162 95.2522ZM102.162 61.4317L101.399 62.1584L101.417 62.177L101.435 62.1947L102.162 61.4317ZM56.9625 54.7941V53.7405H55.909V54.7941H56.9625ZM0.384359 1.7981H86.3579V-0.30909H0.384359V1.7981ZM86.3579 1.7981C108.441 1.7981 126.929 8.97563 141.891 23.3147L143.349 21.7933C127.968 7.05303 108.947 -0.30909 86.3579 -0.30909V1.7981ZM141.891 23.3147C156.839 37.64 164.324 55.9008 164.324 78.1839H166.431C166.431 55.3731 158.744 36.5472 143.349 21.7933L141.891 23.3147ZM164.324 78.1839C164.324 100.467 156.839 118.728 141.891 133.053L143.349 134.575C158.744 119.821 166.431 100.995 166.431 78.1839H164.324ZM141.891 133.053C126.929 147.392 108.441 154.57 86.3579 154.57V156.677C108.947 156.677 127.968 149.315 143.349 134.575L141.891 133.053ZM86.3579 154.57H56.9625V156.677H86.3579V154.57ZM55.909 155.623V222H58.0161V155.623H55.909ZM56.9625 220.946H0.384359V223.054H56.9625V220.946ZM1.43796 222V0.744507H-0.669237V222H1.43796ZM56.9625 102.943H86.3579V100.836H56.9625V102.943ZM86.3579 102.943C92.9567 102.943 98.504 100.621 102.925 95.9788L101.399 94.5256C97.391 98.7339 92.4024 100.836 86.3579 100.836V102.943ZM102.907 95.9972C107.552 91.3517 109.853 85.3831 109.853 78.1839H107.746C107.746 84.8923 105.622 90.3025 101.417 94.5072L102.907 95.9972ZM109.853 78.1839C109.853 70.9854 107.552 65.1102 102.888 60.6688L101.435 62.1947C105.622 66.182 107.746 71.4749 107.746 78.1839H109.853ZM102.925 60.7051C98.504 56.0632 92.9567 53.7405 86.3579 53.7405V55.8477C92.4024 55.8477 97.391 57.95 101.399 62.1584L102.925 60.7051ZM86.3579 53.7405H56.9625V55.8477H86.3579V53.7405ZM55.909 54.7941V101.89H58.0161V54.7941H55.909ZM362.727 222V223.054H364.184L363.728 221.67L362.727 222ZM301.724 222L300.714 222.3L300.938 223.054H301.724V222ZM292.242 190.076L293.252 189.776L293.028 189.022H292.242V190.076ZM218.595 190.076V189.022H217.809L217.585 189.776L218.595 190.076ZM209.113 222V223.054H209.899L210.123 222.3L209.113 222ZM147.793 222L146.793 221.67L146.336 223.054H147.793V222ZM220.808 0.744507V-0.30909H220.046L219.807 0.41433L220.808 0.744507ZM289.713 0.744507L290.713 0.414337L290.475 -0.30909H289.713V0.744507ZM255.26 66.1729L256.27 65.8717L255.253 62.4633L254.25 65.8756L255.26 66.1729ZM233.135 141.4L232.124 141.102L231.727 142.453H233.135V141.4ZM277.702 141.4V142.453H279.116L278.712 141.099L277.702 141.4ZM362.727 220.946H301.724V223.054H362.727V220.946ZM302.734 221.7L293.252 189.776L291.232 190.376L300.714 222.3L302.734 221.7ZM292.242 189.022H218.595V191.13H292.242V189.022ZM217.585 189.776L208.103 221.7L210.123 222.3L219.605 190.376L217.585 189.776ZM209.113 220.946H147.793V223.054H209.113V220.946ZM148.794 222.33L221.808 1.07468L219.807 0.41433L146.793 221.67L148.794 222.33ZM220.808 1.7981H289.713V-0.30909H220.808V1.7981ZM288.712 1.07468L361.727 222.33L363.728 221.67L290.713 0.414337L288.712 1.07468ZM254.25 65.8756L232.124 141.102L234.146 141.697L256.271 66.4702L254.25 65.8756ZM233.135 142.453H277.702V140.346H233.135V142.453ZM278.712 141.099L256.27 65.8717L254.251 66.4741L276.692 141.701L278.712 141.099ZM518.522 107.579L517.872 106.75L516.659 107.702L517.986 108.486L518.522 107.579ZM526.108 204.3L525.421 203.5L525.42 203.501L526.108 204.3ZM378.815 222H377.762V223.054H378.815V222ZM378.815 0.744507V-0.30909H377.762V0.744507H378.815ZM519.154 17.8128L518.462 18.6073L518.469 18.6132L518.476 18.619L519.154 17.8128ZM435.393 51.3172V50.2636H434.34V51.3172H435.393ZM435.393 86.0859H434.34V87.1395H435.393V86.0859ZM477.432 81.6608L478.126 82.4537L478.139 82.4418L478.153 82.4294L477.432 81.6608ZM435.393 171.427H434.34V172.481H435.393V171.427ZM484.386 166.37L485.108 167.137L485.119 167.126L485.131 167.115L484.386 166.37ZM484.386 139.187L485.108 138.42L484.386 139.187ZM435.393 134.13V133.076H434.34V134.13H435.393ZM517.986 108.486C536.198 119.248 545.284 135.438 545.284 157.204H547.391C547.391 134.718 537.933 117.825 519.058 106.672L517.986 108.486ZM545.284 157.204C545.284 176.744 538.646 192.135 525.421 203.5L526.795 205.099C540.542 193.285 547.391 177.279 547.391 157.204H545.284ZM525.42 203.501C511.957 215.101 494.204 220.946 472.059 220.946V223.054C494.586 223.054 512.866 217.099 526.796 205.098L525.42 203.501ZM472.059 220.946H378.815V223.054H472.059V220.946ZM379.869 222V0.744507H377.762V222H379.869ZM378.815 1.7981H466.053V-0.30909H378.815V1.7981ZM466.053 1.7981C488.21 1.7981 505.64 7.43912 518.462 18.6073L519.846 17.0183C506.54 5.42875 488.568 -0.30909 466.053 -0.30909V1.7981ZM518.476 18.619C531.484 29.5619 538.014 44.5279 538.014 63.6443H540.121C540.121 43.9882 533.376 28.3999 519.833 17.0066L518.476 18.619ZM538.014 63.6443C538.014 81.8884 531.296 96.218 517.872 106.75L519.173 108.408C533.143 97.4472 540.121 82.4868 540.121 63.6443H538.014ZM464.473 50.2636H435.393V52.3708H464.473V50.2636ZM434.34 51.3172V86.0859H436.447V51.3172H434.34ZM435.393 87.1395H464.473V85.0323H435.393V87.1395ZM464.473 87.1395C469.948 87.1395 474.529 85.6006 478.126 82.4537L476.738 80.8679C473.592 83.6211 469.533 85.0323 464.473 85.0323V87.1395ZM478.153 82.4294C481.776 79.0326 483.543 74.4128 483.543 68.7016H481.436C481.436 73.9477 479.831 77.9674 476.711 80.8922L478.153 82.4294ZM483.543 68.7016C483.543 63.1871 481.767 58.6784 478.153 55.2897L476.711 56.827C479.84 59.7599 481.436 63.68 481.436 68.7016H483.543ZM478.153 55.2897C474.558 51.92 469.968 50.2636 464.473 50.2636V52.3708C469.513 52.3708 473.563 53.8751 476.711 56.827L478.153 55.2897ZM435.393 172.481H470.478V170.374H435.393V172.481ZM470.478 172.481C476.391 172.481 481.3 170.721 485.108 167.137L483.664 165.603C480.307 168.762 475.944 170.374 470.478 170.374V172.481ZM485.131 167.115C488.928 163.318 490.813 158.512 490.813 152.779H488.705C488.705 158.003 487.008 162.257 483.641 165.625L485.131 167.115ZM490.813 152.779C490.813 146.848 488.935 142.022 485.108 138.42L483.664 139.954C487.001 143.095 488.705 147.33 488.705 152.779H490.813ZM485.108 138.42C481.3 134.836 476.391 133.076 470.478 133.076V135.184C475.944 135.184 480.307 136.796 483.664 139.954L485.108 138.42ZM470.478 133.076H435.393V135.184H470.478V133.076ZM434.34 134.13V171.427H436.447V134.13H434.34ZM549.177 0.744507V-0.30909H548.123V0.744507H549.177ZM715.119 0.744507H716.172V-0.30909H715.119V0.744507ZM715.119 55.4262V56.4798H716.172V55.4262H715.119ZM660.437 55.4262V54.3726H659.383V55.4262H660.437ZM660.437 222V223.054H661.49V222H660.437ZM603.859 222H602.805V223.054H603.859V222ZM603.859 55.4262H604.912V54.3726H603.859V55.4262ZM549.177 55.4262H548.123V56.4798H549.177V55.4262ZM549.177 1.7981H715.119V-0.30909H549.177V1.7981ZM714.065 0.744507V55.4262H716.172V0.744507H714.065ZM715.119 54.3726H660.437V56.4798H715.119V54.3726ZM659.383 55.4262V222H661.49V55.4262H659.383ZM660.437 220.946H603.859V223.054H660.437V220.946ZM604.912 222V55.4262H602.805V222H604.912ZM603.859 54.3726H549.177V56.4798H603.859V54.3726ZM550.231 55.4262V0.744507H548.123V55.4262H550.231Z" fill="black"/>
</svg>
